<?xml version="1.0" encoding="iso-8859-1"?>
<!-- Generator: Adobe Illustrator 19.0.0, SVG Export Plug-In . SVG Version: 6.00 Build 0)  -->
<svg version="1.1" id="Layer_1" xmlns="http://www.w3.org/2000/svg" xmlns:xlink="http://www.w3.org/1999/xlink" x="0px" y="0px"
	 viewBox="0 0 511.999 511.999" style="enable-background:new 0 0 511.999 511.999;" xml:space="preserve">
<g>
	<g>
		<path d="M448.071,60.408H63.928C28.677,60.408,0,89.087,0,124.336v263.327c0,35.251,28.677,63.928,63.928,63.928h384.143
			c35.251,0,63.928-28.679,63.928-63.928V124.336C512,89.087,483.321,60.408,448.071,60.408z M34.724,124.336
			c0-16.103,13.1-29.204,29.204-29.204h384.143c16.104,0,29.204,13.101,29.204,29.204v174.77l-67.564-53.476
			c-5.319-4.21-12.601-4.935-18.647-1.861l-126.903,64.555l-132.924-98.268c-6.173-4.564-14.608-4.533-20.746,0.078l-75.767,56.896
			V124.336z M460.34,329.987H298.163l98.726-50.221L460.34,329.987z M34.724,310.454l86.273-64.785l114.055,84.318H34.724V310.454z
			 M477.276,387.663c0,16.104-13.101,29.205-29.205,29.205H63.928c-16.104,0-29.204-13.101-29.204-29.205V364.71
			c0,0,442.013-0.032,442.552-0.082V387.663z"/>
	</g>
</g>
<g>
	<g>
		<path d="M318.272,123.618c-29.923,0-54.267,24.344-54.267,54.267s24.344,54.267,54.267,54.267s54.267-24.344,54.267-54.267
			S348.194,123.618,318.272,123.618z M318.272,197.428c-10.776,0-19.543-8.767-19.543-19.543s8.767-19.543,19.543-19.543
			s19.543,8.767,19.543,19.543S329.048,197.428,318.272,197.428z"/>
	</g>
</g>
<g>
</g>
<g>
</g>
<g>
</g>
<g>
</g>
<g>
</g>
<g>
</g>
<g>
</g>
<g>
</g>
<g>
</g>
<g>
</g>
<g>
</g>
<g>
</g>
<g>
</g>
<g>
</g>
<g>
</g>
</svg>
